<svg xmlns="http://www.w3.org/2000/svg" viewBox="0 0 1024 1024" width="1024" height="1024">
  <polygon points="1024.00,512.00 1023.99,588.84 1023.97,613.39 1023.93,631.24 1023.88,645.78 1023.81,658.27 1023.72,669.32 1023.62,679.32 1023.50,688.48 1023.37,696.98 1023.22,704.92 1023.06,712.40 1022.88,719.47 1022.68,726.20 1022.47,732.61 1022.24,738.75 1022.00,744.64 1021.74,750.31 1021.47,755.78 1021.18,761.07 1020.87,766.18 1020.55,771.13 1020.22,775.94 1019.86,780.62 1019.49,785.16 1019.11,789.59 1018.71,793.91 1018.29,798.12 1017.86,802.23 1017.41,806.25 1016.95,810.17 1016.47,814.02 1015.97,817.78 1015.46,821.46 1014.93,825.07 1014.39,828.61 1013.83,832.08 1013.25,835.49 1012.65,838.83 1012.04,842.12 1011.42,845.34 1010.78,848.51 1010.12,851.63 1009.44,854.69 1008.75,857.70 1008.04,860.66 1007.31,863.58 1006.57,866.45 1005.81,869.27 1005.04,872.05 1004.24,874.78 1003.43,877.48 1002.61,880.13 1001.76,882.75 1000.90,885.33 1000.02,887.87 999.13,890.37 998.22,892.83 997.29,895.26 996.34,897.66 995.37,900.02 994.39,902.35 993.39,904.65 992.37,906.92 991.33,909.15 990.28,911.35 989.21,913.53 988.12,915.67 987.01,917.78 985.88,919.87 984.73,921.93 983.57,923.96 982.38,925.96 981.18,927.93 979.96,929.88 978.72,931.81 977.46,933.70 976.18,935.57 974.88,937.42 973.56,939.24 972.23,941.04 970.87,942.81 969.49,944.56 968.09,946.29 966.67,947.99 965.23,949.67 963.77,951.32 962.29,952.96 960.79,954.57 959.27,956.16 957.72,957.72 956.16,959.27 954.57,960.79 952.96,962.29 951.32,963.77 949.67,965.23 947.99,966.67 946.29,968.09 944.56,969.49 942.81,970.87 941.04,972.23 939.24,973.56 937.42,974.88 935.57,976.18 933.70,977.46 931.81,978.72 929.88,979.96 927.93,981.18 925.96,982.38 923.96,983.57 921.93,984.73 919.87,985.88 917.78,987.01 915.67,988.12 913.53,989.21 911.35,990.28 909.15,991.33 906.92,992.37 904.65,993.39 902.35,994.39 900.02,995.37 897.66,996.34 895.26,997.29 892.83,998.22 890.37,999.13 887.87,1000.02 885.33,1000.90 882.75,1001.76 880.13,1002.61 877.48,1003.43 874.78,1004.24 872.05,1005.04 869.27,1005.81 866.45,1006.57 863.58,1007.31 860.66,1008.04 857.70,1008.75 854.69,1009.44 851.63,1010.12 848.51,1010.78 845.34,1011.42 842.12,1012.04 838.83,1012.65 835.49,1013.25 832.08,1013.83 828.61,1014.39 825.07,1014.93 821.46,1015.46 817.78,1015.97 814.02,1016.47 810.17,1016.95 806.25,1017.41 802.23,1017.86 798.12,1018.29 793.91,1018.71 789.59,1019.11 785.16,1019.49 780.62,1019.86 775.94,1020.22 771.13,1020.55 766.18,1020.87 761.07,1021.18 755.78,1021.47 750.31,1021.74 744.64,1022.00 738.75,1022.24 732.61,1022.47 726.20,1022.68 719.47,1022.88 712.40,1023.06 704.92,1023.22 696.98,1023.37 688.48,1023.50 679.32,1023.62 669.32,1023.72 658.27,1023.81 645.78,1023.88 631.24,1023.93 613.39,1023.97 588.84,1023.99 512.00,1024.00 435.16,1023.99 410.61,1023.97 392.76,1023.93 378.22,1023.88 365.73,1023.81 354.68,1023.72 344.68,1023.62 335.52,1023.50 327.02,1023.37 319.08,1023.22 311.60,1023.06 304.53,1022.88 297.80,1022.68 291.39,1022.47 285.25,1022.24 279.36,1022.00 273.69,1021.74 268.22,1021.47 262.93,1021.18 257.82,1020.87 252.87,1020.55 248.06,1020.22 243.38,1019.86 238.84,1019.49 234.41,1019.11 230.09,1018.71 225.88,1018.29 221.77,1017.86 217.75,1017.41 213.83,1016.95 209.98,1016.47 206.22,1015.97 202.54,1015.46 198.93,1014.93 195.39,1014.39 191.92,1013.83 188.51,1013.25 185.17,1012.65 181.88,1012.04 178.66,1011.42 175.49,1010.78 172.37,1010.12 169.31,1009.44 166.30,1008.75 163.34,1008.04 160.42,1007.31 157.55,1006.57 154.73,1005.81 151.95,1005.04 149.22,1004.24 146.52,1003.43 143.87,1002.61 141.25,1001.76 138.67,1000.90 136.13,1000.02 133.63,999.13 131.17,998.22 128.74,997.29 126.34,996.34 123.98,995.37 121.65,994.39 119.35,993.39 117.08,992.37 114.85,991.33 112.65,990.28 110.47,989.21 108.33,988.12 106.22,987.01 104.13,985.88 102.07,984.73 100.04,983.57 98.04,982.38 96.07,981.18 94.12,979.96 92.19,978.72 90.30,977.46 88.43,976.18 86.58,974.88 84.76,973.56 82.96,972.23 81.19,970.87 79.44,969.49 77.71,968.09 76.01,966.67 74.33,965.23 72.68,963.77 71.04,962.29 69.43,960.79 67.84,959.27 66.28,957.72 64.73,956.16 63.21,954.57 61.71,952.96 60.23,951.32 58.77,949.67 57.33,947.99 55.91,946.29 54.51,944.56 53.13,942.81 51.77,941.04 50.44,939.24 49.12,937.42 47.82,935.57 46.54,933.70 45.28,931.81 44.04,929.88 42.82,927.93 41.62,925.96 40.43,923.96 39.27,921.93 38.12,919.87 36.99,917.78 35.88,915.67 34.79,913.53 33.72,911.35 32.67,909.15 31.63,906.92 30.61,904.65 29.61,902.35 28.63,900.02 27.66,897.66 26.71,895.26 25.78,892.83 24.87,890.37 23.98,887.87 23.10,885.33 22.24,882.75 21.39,880.13 20.57,877.48 19.76,874.78 18.96,872.05 18.19,869.27 17.43,866.45 16.69,863.58 15.96,860.66 15.25,857.70 14.56,854.69 13.88,851.63 13.22,848.51 12.58,845.34 11.96,842.12 11.35,838.83 10.75,835.49 10.17,832.08 9.61,828.61 9.07,825.07 8.54,821.46 8.03,817.78 7.53,814.02 7.05,810.17 6.59,806.25 6.14,802.23 5.71,798.12 5.29,793.91 4.89,789.59 4.51,785.16 4.14,780.62 3.78,775.94 3.45,771.13 3.13,766.18 2.82,761.07 2.53,755.78 2.26,750.31 2.00,744.64 1.76,738.75 1.53,732.61 1.32,726.20 1.12,719.47 0.94,712.40 0.78,704.92 0.63,696.98 0.50,688.48 0.38,679.32 0.28,669.32 0.19,658.27 0.12,645.78 0.07,631.24 0.03,613.39 0.01,588.84 0.00,512.00 0.01,435.16 0.03,410.61 0.07,392.76 0.12,378.22 0.19,365.73 0.28,354.68 0.38,344.68 0.50,335.52 0.63,327.02 0.78,319.08 0.94,311.60 1.12,304.53 1.32,297.80 1.53,291.39 1.76,285.25 2.00,279.36 2.26,273.69 2.53,268.22 2.82,262.93 3.13,257.82 3.45,252.87 3.78,248.06 4.14,243.38 4.51,238.84 4.89,234.41 5.29,230.09 5.71,225.88 6.14,221.77 6.59,217.75 7.05,213.83 7.53,209.98 8.03,206.22 8.54,202.54 9.07,198.93 9.61,195.39 10.17,191.92 10.75,188.51 11.35,185.17 11.96,181.88 12.58,178.66 13.22,175.49 13.88,172.37 14.56,169.31 15.25,166.30 15.96,163.34 16.69,160.42 17.43,157.55 18.19,154.73 18.96,151.95 19.76,149.22 20.57,146.52 21.39,143.87 22.24,141.25 23.10,138.67 23.98,136.13 24.87,133.63 25.78,131.17 26.71,128.74 27.66,126.34 28.63,123.98 29.61,121.65 30.61,119.35 31.63,117.08 32.67,114.85 33.72,112.65 34.79,110.47 35.88,108.33 36.99,106.22 38.12,104.13 39.27,102.07 40.43,100.04 41.62,98.04 42.82,96.07 44.04,94.12 45.28,92.19 46.54,90.30 47.82,88.43 49.12,86.58 50.44,84.76 51.77,82.96 53.13,81.19 54.51,79.44 55.91,77.71 57.33,76.01 58.77,74.33 60.23,72.68 61.71,71.04 63.21,69.43 64.73,67.84 66.28,66.28 67.84,64.73 69.43,63.21 71.04,61.71 72.68,60.23 74.33,58.77 76.01,57.33 77.71,55.91 79.44,54.51 81.19,53.13 82.96,51.77 84.76,50.44 86.58,49.12 88.43,47.82 90.30,46.54 92.19,45.28 94.12,44.04 96.07,42.82 98.04,41.62 100.04,40.43 102.07,39.27 104.13,38.12 106.22,36.99 108.33,35.88 110.47,34.79 112.65,33.72 114.85,32.67 117.08,31.63 119.35,30.61 121.65,29.61 123.98,28.63 126.34,27.66 128.74,26.71 131.17,25.78 133.63,24.87 136.13,23.98 138.67,23.10 141.25,22.24 143.87,21.39 146.52,20.57 149.22,19.76 151.95,18.96 154.73,18.19 157.55,17.43 160.42,16.69 163.34,15.96 166.30,15.25 169.31,14.56 172.37,13.88 175.49,13.22 178.66,12.58 181.88,11.96 185.17,11.35 188.51,10.75 191.92,10.17 195.39,9.61 198.93,9.07 202.54,8.54 206.22,8.03 209.98,7.53 213.83,7.05 217.75,6.59 221.77,6.14 225.88,5.71 230.09,5.29 234.41,4.89 238.84,4.51 243.38,4.14 248.06,3.78 252.87,3.45 257.82,3.13 262.93,2.82 268.22,2.53 273.69,2.26 279.36,2.00 285.25,1.76 291.39,1.53 297.80,1.32 304.53,1.12 311.60,0.94 319.08,0.78 327.02,0.63 335.52,0.50 344.68,0.38 354.68,0.28 365.73,0.19 378.22,0.12 392.76,0.07 410.61,0.03 435.16,0.01 512.00,0.00 588.84,0.01 613.39,0.03 631.24,0.07 645.78,0.12 658.27,0.19 669.32,0.28 679.32,0.38 688.48,0.50 696.98,0.63 704.92,0.78 712.40,0.94 719.47,1.12 726.20,1.32 732.61,1.53 738.75,1.76 744.64,2.00 750.31,2.26 755.78,2.53 761.07,2.82 766.18,3.13 771.13,3.45 775.94,3.78 780.62,4.14 785.16,4.51 789.59,4.89 793.91,5.29 798.12,5.71 802.23,6.14 806.25,6.59 810.17,7.05 814.02,7.53 817.78,8.03 821.46,8.54 825.07,9.07 828.61,9.61 832.08,10.17 835.49,10.75 838.83,11.35 842.12,11.96 845.34,12.58 848.51,13.22 851.63,13.88 854.69,14.56 857.70,15.25 860.66,15.96 863.58,16.69 866.45,17.43 869.27,18.19 872.05,18.96 874.78,19.76 877.48,20.57 880.13,21.39 882.75,22.24 885.33,23.10 887.87,23.98 890.37,24.87 892.83,25.78 895.26,26.71 897.66,27.66 900.02,28.63 902.35,29.61 904.65,30.61 906.92,31.63 909.15,32.67 911.35,33.72 913.53,34.79 915.67,35.88 917.78,36.99 919.87,38.12 921.93,39.27 923.96,40.43 925.96,41.62 927.93,42.82 929.88,44.04 931.81,45.28 933.70,46.54 935.57,47.82 937.42,49.12 939.24,50.44 941.04,51.77 942.81,53.13 944.56,54.51 946.29,55.91 947.99,57.33 949.67,58.77 951.32,60.23 952.96,61.71 954.57,63.21 956.16,64.73 957.72,66.28 959.27,67.84 960.79,69.43 962.29,71.04 963.77,72.68 965.23,74.33 966.67,76.01 968.09,77.71 969.49,79.44 970.87,81.19 972.23,82.96 973.56,84.76 974.88,86.58 976.18,88.43 977.46,90.30 978.72,92.19 979.96,94.12 981.18,96.07 982.38,98.04 983.57,100.04 984.73,102.07 985.88,104.13 987.01,106.22 988.12,108.33 989.21,110.47 990.28,112.65 991.33,114.85 992.37,117.08 993.39,119.35 994.39,121.65 995.37,123.98 996.34,126.34 997.29,128.74 998.22,131.17 999.13,133.63 1000.02,136.13 1000.90,138.67 1001.76,141.25 1002.61,143.87 1003.43,146.52 1004.24,149.22 1005.04,151.95 1005.81,154.73 1006.57,157.55 1007.31,160.42 1008.04,163.34 1008.75,166.30 1009.44,169.31 1010.12,172.37 1010.78,175.49 1011.42,178.66 1012.04,181.88 1012.65,185.17 1013.25,188.51 1013.83,191.92 1014.39,195.39 1014.93,198.93 1015.46,202.54 1015.97,206.22 1016.47,209.98 1016.95,213.83 1017.41,217.75 1017.86,221.77 1018.29,225.88 1018.71,230.09 1019.11,234.41 1019.49,238.84 1019.86,243.38 1020.22,248.06 1020.55,252.87 1020.87,257.82 1021.18,262.93 1021.47,268.22 1021.74,273.69 1022.00,279.36 1022.24,285.25 1022.47,291.39 1022.68,297.80 1022.88,304.53 1023.06,311.60 1023.22,319.08 1023.37,327.02 1023.50,335.52 1023.62,344.68 1023.72,354.68 1023.81,365.73 1023.88,378.22 1023.93,392.76 1023.97,410.61 1023.99,435.16 1024.00,512.00" fill="#d97757"></polygon>
  <rect x="240.64" y="487.33" width="108.54" height="296.03" rx="17.37" fill="#ffffff"></rect>
  <rect x="457.73" y="240.64" width="108.54" height="542.72" rx="17.37" fill="#ffffff"></rect>
  <rect x="674.82" y="388.65" width="108.54" height="394.71" rx="17.37" fill="#ffffff"></rect>
</svg>